<svg version="1.1" id="Layer_1" xmlns="http://www.w3.org/2000/svg" xmlns:xlink="http://www.w3.org/1999/xlink" x="0px" y="0px"
	 width="100%" viewBox="0 0 131 143" enable-background="new 0 0 131 143" xml:space="preserve">
<path fill="#FFFEFF" opacity="1.000000" stroke="none" 
	d="
M132.000000,61.000000 
	C132.000000,89.000000 132.000000,116.500000 132.000000,144.000000 
	C88.333336,144.000000 44.666668,144.000000 1.000000,144.000000 
	C1.000000,96.333336 1.000000,48.666668 1.000000,1.000000 
	C44.666668,1.000000 88.333336,1.000000 132.000000,1.000000 
	C132.000000,20.833334 132.000000,40.666668 132.000000,61.000000 
M24.033346,85.608284 
	C24.348017,85.759979 24.662689,85.911682 24.967325,86.018105 
	C24.967325,86.018105 24.932171,86.053474 25.368093,86.587555 
	C26.813356,87.384033 28.242155,88.212234 29.706469,88.972008 
	C42.447701,95.582848 62.147930,92.920921 72.163750,83.177444 
	C72.163750,83.177444 72.101479,83.144569 72.666481,83.007469 
	C72.914955,82.714348 73.163429,82.421227 74.016617,81.900810 
	C77.446304,78.987030 81.690941,76.372559 78.071854,70.244415 
	C78.009819,69.833405 77.947792,69.422386 78.074440,68.354263 
	C78.400108,67.275650 78.725777,66.197044 79.620773,64.712952 
	C85.703987,59.023731 89.814934,59.649830 94.909058,67.832306 
	C93.571388,70.814560 92.233719,73.796814 90.149399,76.924667 
	C87.379128,78.598900 84.608856,80.273132 81.412361,82.129768 
	C81.156448,82.334435 81.010536,82.599640 80.395775,83.234871 
	C78.831161,84.779549 77.266541,86.324226 75.181557,87.998833 
	C74.794426,88.357552 74.407295,88.716270 73.423889,89.229965 
	C72.619835,89.849579 71.815781,90.469193 70.334511,91.265396 
	C66.086716,93.134460 61.838917,95.003517 56.757446,96.841095 
	C52.347095,97.375710 47.936745,97.910324 42.356777,98.586723 
	C43.708378,101.222984 44.764347,103.282623 45.942017,105.937248 
	C46.369366,106.626717 46.796719,107.316185 47.357677,108.631447 
	C48.548740,110.142914 49.739803,111.654373 51.084240,113.781242 
	C52.097038,114.836960 53.109837,115.892677 54.362717,117.534630 
	C55.603203,118.677788 56.843693,119.820946 58.370651,121.564003 
	C59.280624,122.501328 60.302586,123.354637 61.080238,124.391235 
	C63.753445,127.954559 65.980858,127.361061 68.616844,123.679337 
	C70.073685,122.114021 71.530525,120.548698 73.583267,118.726486 
	C75.045074,117.149033 76.506882,115.571579 78.442657,113.815346 
	C78.629539,113.542381 78.816422,113.269409 79.600594,112.725426 
	C81.406013,110.821632 83.211433,108.917839 85.583252,106.769081 
	C86.400543,105.862892 87.217834,104.956703 88.606148,103.762749 
	C89.751755,102.513779 90.897362,101.264816 92.627884,99.741798 
	C94.091286,98.164612 95.554680,96.587418 97.582397,94.753769 
	C98.388443,93.826843 99.194481,92.899925 100.594551,91.699982 
	C102.395523,89.800125 104.196487,87.900261 106.536415,85.774071 
	C107.026031,85.184662 107.515640,84.595261 108.000000,84.000000 
	C108.000000,84.000000 108.005669,84.005333 108.549683,83.785751 
	C109.051651,83.197205 109.553619,82.608658 110.537796,81.863579 
	C110.712097,81.583519 110.886391,81.303459 111.636169,80.757759 
	C112.705460,79.497330 113.774750,78.236900 115.198631,76.404236 
	C116.835495,74.953537 118.472366,73.502838 120.721390,71.745712 
	C123.566956,68.768173 121.010994,67.471184 118.878036,65.367523 
	C117.341270,63.880230 115.804504,62.392941 113.933014,60.302258 
	C111.832191,58.521118 109.731369,56.739983 107.601151,54.614594 
	C107.477753,54.384018 107.285728,54.280132 106.706787,54.015312 
	C106.706787,54.015312 106.300262,53.878296 105.871437,53.320473 
	C90.010124,43.495590 72.388184,43.663437 58.927700,53.896397 
	C57.294586,55.267326 55.661472,56.638256 53.365917,58.202232 
	C52.253117,60.138348 51.140316,62.074459 49.939064,64.681030 
	C50.013016,65.124344 50.086967,65.567650 50.159477,66.580193 
	C50.474888,67.052544 50.790298,67.524895 51.007984,68.746910 
	C50.654648,70.439919 50.301308,72.132935 49.520950,74.113045 
	C49.375504,74.415688 49.230061,74.718330 49.017162,75.025566 
	C49.017162,75.025566 49.040913,75.088997 48.402351,75.388779 
	C44.149769,79.138672 40.013393,78.498245 35.686081,74.365982 
	C35.138519,71.941193 34.590958,69.516396 34.517483,66.712646 
	C34.693104,66.145813 34.868725,65.578979 35.005901,65.014038 
	C35.005901,65.014038 35.032120,65.046463 35.596962,64.644936 
	C37.170876,63.538528 38.737091,62.420971 40.320465,61.328266 
	C42.889927,59.555050 45.470634,57.798126 48.633854,55.756695 
	C50.159393,54.209969 51.684937,52.663242 53.840866,50.946468 
	C55.537464,49.571899 57.234062,48.197330 59.656013,46.814255 
	C65.198112,44.909870 70.740219,43.005482 77.150055,41.161968 
	C79.915459,41.161968 82.680862,41.161968 86.683044,41.161968 
	C85.472725,38.301075 84.758598,36.613052 84.018890,34.343735 
	C83.716789,33.870262 83.414688,33.396790 82.861748,32.304832 
	C81.919479,30.857924 80.977219,29.411015 79.852264,27.353815 
	C78.611221,26.219316 77.370178,25.084818 75.974998,23.283638 
	C74.008568,21.160425 72.042137,19.037210 70.035484,16.944845 
	C70.035484,16.944845 70.079285,16.961281 69.906181,16.479208 
	C69.608696,16.357269 69.311211,16.235332 68.462517,15.684510 
	C64.927986,10.449215 64.473534,10.502041 58.324551,17.121109 
	C56.843559,18.721479 55.362568,20.321850 53.299053,22.198296 
	C51.841438,23.751205 50.383823,25.304115 48.334469,27.159151 
	C46.515076,29.080898 44.695683,31.002644 42.364239,33.157261 
	C41.893528,33.724976 41.422821,34.292690 40.391579,35.133389 
	C39.585415,36.067238 38.779251,37.001087 37.381218,38.222599 
	C35.564693,40.108292 33.748165,41.993984 31.332426,44.163589 
	C29.516785,46.095867 27.701141,48.028149 25.305069,50.235981 
	C23.825478,51.809116 22.345886,53.382252 20.300755,55.233990 
	C19.153809,56.473866 18.006861,57.713741 16.272921,59.235538 
	C14.144457,61.475468 12.015993,63.715401 9.277679,66.252335 
	C5.834642,68.881248 6.760567,71.022903 10.243473,73.453560 
	C10.835927,73.961555 11.428382,74.469551 12.252283,75.518311 
	C12.750630,75.785751 13.248977,76.053192 13.679653,76.308075 
	C13.679653,76.308075 13.686195,76.376587 13.860527,76.974823 
	C15.460953,78.362816 17.061378,79.750809 18.976479,81.654846 
	C19.624065,82.111000 20.271652,82.567146 21.152473,83.442749 
	C21.365602,83.709877 21.642822,83.851685 22.228720,84.082443 
	C22.228720,84.082443 22.548952,84.138901 22.878094,84.636116 
	C23.225388,84.809052 23.572681,84.981979 23.927483,85.063370 
	C23.927483,85.063370 23.844694,85.103165 24.033346,85.608284 
z"/>
<path fill="#A872CB" opacity="1.000000" stroke="none" 
	d="
M72.187065,83.243896 
	C62.147930,92.920921 42.447701,95.582848 29.706469,88.972008 
	C28.242155,88.212234 26.813356,87.384033 25.528212,86.261932 
	C27.875097,85.957802 30.063040,85.942223 32.248299,86.011429 
	C34.340416,86.077690 36.257084,86.010460 36.387733,83.178268 
	C40.639648,83.523247 44.484493,83.850266 48.335213,83.949615 
	C48.807907,83.961807 49.312027,82.756203 50.177589,82.115845 
	C52.986435,83.024597 55.418278,84.678627 57.852341,84.681892 
	C62.629929,84.688324 67.408752,83.776031 72.187065,83.243896 
z"/>
<path fill="#DF6D9F" opacity="1.000000" stroke="none" 
	d="
M59.542408,53.761749 
	C72.388184,43.663437 90.010124,43.495590 105.624619,53.638748 
	C101.905876,55.004028 98.433945,56.051029 94.616257,56.956715 
	C89.247383,55.905396 84.224258,54.995396 78.722900,54.060333 
	C72.010582,53.944099 65.776497,53.852924 59.542408,53.761749 
z"/>
<path fill="#BB55C8" opacity="1.000000" stroke="none" 
	d="
M72.175407,83.210670 
	C67.408752,83.776031 62.629929,84.688324 57.852341,84.681892 
	C55.418278,84.678627 52.986435,83.024597 49.734566,82.090691 
	C42.534657,82.116371 35.875648,82.941002 32.375526,75.986465 
	C33.806477,75.679176 34.878784,75.369186 35.951096,75.059204 
	C40.013393,78.498245 44.149769,79.138672 48.728813,75.616226 
	C50.087029,76.490295 51.618591,77.942947 52.074184,77.660431 
	C57.355499,74.385483 62.889992,76.671883 68.164459,77.031059 
	C76.334343,77.587425 77.847466,77.090439 78.068459,70.868683 
	C81.690941,76.372559 77.446304,78.987030 73.415237,82.064743 
	C72.576393,82.533981 72.338936,82.839272 72.101479,83.144569 
	C72.101479,83.144569 72.163750,83.177444 72.175407,83.210670 
z"/>
<path fill="#819CCC" opacity="1.000000" stroke="none" 
	d="
M92.042969,100.015854 
	C90.897362,101.264816 89.751755,102.513779 88.091812,103.640274 
	C83.860497,103.344994 80.145195,103.102036 76.426208,103.013252 
	C67.254524,102.794296 58.080700,102.553246 48.909103,102.598351 
	C47.875034,102.603432 46.849701,104.384666 45.820312,105.342262 
	C44.764347,103.282623 43.708378,101.222984 42.356777,98.586723 
	C47.936745,97.910324 52.347095,97.375710 57.601929,96.923309 
	C66.799469,97.336975 75.161743,97.528351 83.500542,98.076691 
	C86.378075,98.265915 89.197174,99.343864 92.042969,100.015854 
z"/>
<path fill="#D955B0" opacity="1.000000" stroke="none" 
	d="
M94.892204,67.038811 
	C89.814934,59.649830 85.703987,59.023731 79.303848,64.492683 
	C77.627121,63.513882 76.338165,62.325665 74.892586,62.087296 
	C71.986794,61.608143 68.870857,62.117611 66.065552,61.374195 
	C60.211109,59.822750 54.975536,60.708519 50.027519,64.010574 
	C51.140316,62.074459 52.253117,60.138348 54.119572,58.104980 
	C59.231258,58.004501 63.607994,58.248772 67.941528,57.921341 
	C71.539795,57.649464 75.087212,56.704739 79.050972,56.159462 
	C79.699310,56.351677 79.953827,56.442520 80.501717,56.694599 
	C81.958511,56.867737 83.121933,56.879631 84.690155,56.835670 
	C86.423080,56.873077 87.777122,56.832176 89.074883,57.082767 
	C94.794510,58.187187 98.657845,63.565090 96.869461,67.813728 
	C96.089363,67.380013 95.490784,67.209412 94.892204,67.038811 
z"/>
<path fill="#E98A82" opacity="1.000000" stroke="none" 
	d="
M37.973087,37.934929 
	C38.779251,37.001087 39.585415,36.067238 40.741180,35.376823 
	C42.268761,36.394157 43.445766,37.829845 44.624870,37.831573 
	C50.960472,37.840855 57.297882,37.524246 63.632107,37.258984 
	C68.349190,37.061440 73.313843,35.761757 77.694695,36.853348 
	C80.974060,37.670467 82.519608,37.671661 84.044464,34.925034 
	C84.758598,36.613052 85.472725,38.301075 86.683044,41.161968 
	C82.680862,41.161968 79.915459,41.161968 76.244293,41.099808 
	C69.782196,41.337070 64.015930,42.687412 58.730362,41.631493 
	C53.743500,40.635250 49.204010,41.522915 44.456520,41.513981 
	C42.293140,41.509911 40.134098,39.199333 37.973087,37.934929 
z"/>
<path fill="#72ABCC" opacity="1.000000" stroke="none" 
	d="
M45.881165,105.639755 
	C46.849701,104.384666 47.875034,102.603432 48.909103,102.598351 
	C58.080700,102.553246 67.254524,102.794296 76.426208,103.013252 
	C80.145195,103.102036 83.860497,103.344994 87.806305,103.784164 
	C87.217834,104.956703 86.400543,105.862892 84.955177,106.744873 
	C77.969276,106.819260 71.608871,106.840706 65.254852,107.053185 
	C62.595230,107.142120 59.956219,107.777588 57.295139,107.910706 
	C53.944916,108.078293 50.581688,107.985878 47.224072,108.005653 
	C46.796719,107.316185 46.369366,106.626717 45.881165,105.639755 
z"/>
<path fill="#CD3BCA" opacity="1.000000" stroke="none" 
	d="
M78.070160,70.556549 
	C77.847466,77.090439 76.334343,77.587425 68.164459,77.031059 
	C62.889992,76.671883 57.355499,74.385483 52.074184,77.660431 
	C51.618591,77.942947 50.087029,76.490295 49.048096,75.466331 
	C49.040913,75.088997 49.017162,75.025566 49.273178,74.889954 
	C49.668789,74.444870 49.808380,74.135406 49.947971,73.825943 
	C50.301308,72.132935 50.654648,70.439919 51.411034,68.420792 
	C53.395866,69.798607 54.977654,71.502541 57.101646,73.790550 
	C57.799248,71.267319 58.196522,69.830376 58.488228,68.775261 
	C64.936722,71.937813 70.923653,72.116936 77.218582,68.998032 
	C77.440979,69.001953 77.885757,69.011375 77.885757,69.011375 
	C77.947792,69.422386 78.009819,69.833405 78.070160,70.556549 
z"/>
<path fill="#E4808D" opacity="1.000000" stroke="none" 
	d="
M37.677155,38.078766 
	C40.134098,39.199333 42.293140,41.509911 44.456520,41.513981 
	C49.204010,41.522915 53.743500,40.635250 58.730362,41.631493 
	C64.015930,42.687412 69.782196,41.337070 75.810425,41.069370 
	C70.740219,43.005482 65.198112,44.909870 58.987106,46.560261 
	C51.952477,46.200256 45.576015,46.274837 39.226429,45.897373 
	C36.763557,45.750965 34.361435,44.582527 31.931639,43.879673 
	C33.748165,41.993984 35.564693,40.108292 37.677155,38.078766 
z"/>
<path fill="#EB9479" opacity="1.000000" stroke="none" 
	d="
M84.031677,34.634384 
	C82.519608,37.671661 80.974060,37.670467 77.694695,36.853348 
	C73.313843,35.761757 68.349190,37.061440 63.632107,37.258984 
	C57.297882,37.524246 50.960472,37.840855 44.624870,37.831573 
	C43.445766,37.829845 42.268761,36.394157 41.021450,35.240334 
	C41.422821,34.292690 41.893528,33.724976 42.984657,33.204140 
	C45.679615,33.322598 47.765686,33.565945 49.826134,33.427628 
	C53.385143,33.188705 56.958241,32.224525 60.471619,32.440399 
	C67.271965,32.858227 74.029541,33.942684 80.821396,34.572323 
	C81.528091,34.637833 82.346184,33.501831 83.112595,32.923309 
	C83.414688,33.396790 83.716789,33.870262 84.031677,34.634384 
z"/>
<path fill="#ED9F70" opacity="1.000000" stroke="none" 
	d="
M82.987167,32.614071 
	C82.346184,33.501831 81.528091,34.637833 80.821396,34.572323 
	C74.029541,33.942684 67.271965,32.858227 60.471619,32.440399 
	C56.958241,32.224525 53.385143,33.188705 49.826134,33.427628 
	C47.765686,33.565945 45.679615,33.322598 43.240685,33.087704 
	C44.695683,31.002644 46.515076,29.080898 48.833092,27.309116 
	C55.565739,32.098915 62.558655,26.969746 69.168335,29.309460 
	C72.114258,32.069695 74.611191,31.178125 77.323975,28.969816 
	C78.443222,28.618067 79.239090,28.291086 80.034950,27.964104 
	C80.977219,29.411015 81.919479,30.857924 82.987167,32.614071 
z"/>
<path fill="#8E8CCB" opacity="1.000000" stroke="none" 
	d="
M92.335419,99.878822 
	C89.197174,99.343864 86.378075,98.265915 83.500542,98.076691 
	C75.161743,97.528351 66.799469,97.336975 58.018768,96.939049 
	C61.838917,95.003517 66.086716,93.134460 70.687241,91.585938 
	C72.618843,92.605110 74.160622,93.794907 75.783012,93.917442 
	C82.848572,94.451103 89.937584,94.674278 97.018074,95.010223 
	C95.554680,96.587418 94.091286,98.164612 92.335419,99.878822 
z"/>
<path fill="#E37296" opacity="1.000000" stroke="none" 
	d="
M31.632032,44.021629 
	C34.361435,44.582527 36.763557,45.750965 39.226429,45.897373 
	C45.576015,46.274837 51.952477,46.200256 58.624432,46.564514 
	C57.234062,48.197330 55.537464,49.571899 53.128788,50.854237 
	C50.326069,50.507629 48.238346,50.066059 46.144245,50.033379 
	C39.392597,49.928013 32.638596,49.973251 25.885498,49.960434 
	C27.701141,48.028149 29.516785,46.095867 31.632032,44.021629 
z"/>
<path fill="#F0AE62" opacity="1.000000" stroke="none" 
	d="
M68.996429,28.986713 
	C62.558655,26.969746 55.565739,32.098915 49.128967,27.158052 
	C50.383823,25.304115 51.841438,23.751205 53.887337,22.263012 
	C56.692833,24.689268 58.832466,26.596081 61.796795,23.055140 
	C62.424412,22.305445 64.217575,22.188789 65.413506,22.321831 
	C69.001366,22.720968 72.559441,23.387894 76.129135,23.950317 
	C77.370178,25.084818 78.611221,26.219316 79.943604,27.658960 
	C79.239090,28.291086 78.443222,28.618067 77.172623,28.670044 
	C75.142067,27.255400 73.586258,26.115757 71.533287,24.611946 
	C70.533913,26.335352 69.765167,27.661032 68.996429,28.986713 
z"/>
<path fill="#68BACD" opacity="1.000000" stroke="none" 
	d="
M47.290874,108.318550 
	C50.581688,107.985878 53.944916,108.078293 57.295139,107.910706 
	C59.956219,107.777588 62.595230,107.142120 65.254852,107.053185 
	C71.608871,106.840706 77.969276,106.819260 84.671982,106.867363 
	C83.211433,108.917839 81.406013,110.821632 79.209877,112.464859 
	C78.152428,111.809410 77.523277,111.164978 76.813187,111.058052 
	C69.361511,109.936096 61.770058,112.922081 54.286938,110.301712 
	C53.588230,110.057037 52.069077,112.155373 50.930862,113.165833 
	C49.739803,111.654373 48.548740,110.142914 47.290874,108.318550 
z"/>
<path fill="#E066A1" opacity="1.000000" stroke="none" 
	d="
M25.595284,50.098206 
	C32.638596,49.973251 39.392597,49.928013 46.144245,50.033379 
	C48.238346,50.066059 50.326069,50.507629 52.813591,50.939262 
	C51.684937,52.663242 50.159393,54.209969 48.017086,55.753540 
	C45.381485,55.837799 43.362648,55.925209 41.134186,55.684547 
	C38.611637,55.855015 36.298710,56.353561 33.973106,56.458855 
	C32.381329,55.420444 30.820639,54.297836 29.219040,54.236084 
	C26.448156,54.129250 23.651903,54.680305 20.866295,54.955387 
	C22.345886,53.382252 23.825478,51.809116 25.595284,50.098206 
z"/>
<path fill="#DA44B9" opacity="1.000000" stroke="none" 
	d="
M77.980103,68.682816 
	C77.885757,69.011375 77.440979,69.001953 77.165855,68.606232 
	C75.256134,67.473221 73.640007,66.151848 71.983749,66.099464 
	C64.715813,65.869629 57.436260,66.006844 50.160919,66.010956 
	C50.086967,65.567650 50.013016,65.124344 49.983292,64.345802 
	C54.975536,60.708519 60.211109,59.822750 66.065552,61.374195 
	C68.870857,62.117611 71.986794,61.608143 74.892586,62.087296 
	C76.338165,62.325665 77.627121,63.513882 79.019180,64.695419 
	C78.725777,66.197044 78.400108,67.275650 77.980103,68.682816 
z"/>
<path fill="#5CC8CD" opacity="1.000000" stroke="none" 
	d="
M51.007553,113.473541 
	C52.069077,112.155373 53.588230,110.057037 54.286938,110.301712 
	C61.770058,112.922081 69.361511,109.936096 76.813187,111.058052 
	C77.523277,111.164978 78.152428,111.809410 78.911232,112.600372 
	C78.816422,113.269409 78.629539,113.542381 77.802086,113.906647 
	C74.442673,114.669380 71.723839,115.340805 68.541382,116.007599 
	C63.426048,116.318108 58.774342,116.633255 54.122631,116.948395 
	C53.109837,115.892677 52.097038,114.836960 51.007553,113.473541 
z"/>
<path fill="#D837C4" opacity="1.000000" stroke="none" 
	d="
M50.160198,66.295578 
	C57.436260,66.006844 64.715813,65.869629 71.983749,66.099464 
	C73.640007,66.151848 75.256134,67.473221 76.943451,68.602318 
	C70.923653,72.116936 64.936722,71.937813 58.488228,68.775261 
	C58.196522,69.830376 57.799248,71.267319 57.101646,73.790550 
	C54.977654,71.502541 53.395866,69.798607 51.459892,68.045959 
	C50.790298,67.524895 50.474888,67.052544 50.160198,66.295578 
z"/>
<path fill="#A66FC9" opacity="1.000000" stroke="none" 
	d="
M105.997452,86.000397 
	C104.196487,87.900261 102.395523,89.800125 100.224731,91.469986 
	C98.236450,90.826668 96.617981,90.413338 94.735542,89.716644 
	C91.644775,89.625992 88.817970,89.818687 85.659348,90.010193 
	C84.885101,90.008377 84.442665,90.007759 83.746658,89.724281 
	C80.896027,88.917244 78.298973,88.393074 75.701920,87.868896 
	C77.266541,86.324226 78.831161,84.779549 80.700241,83.478439 
	C82.126183,84.806648 83.247650,85.891296 84.369125,86.975937 
	C85.264099,85.941872 86.159065,84.907806 87.449219,83.937782 
	C89.855515,83.559196 91.866623,83.116570 93.910553,83.094681 
	C93.741051,86.298798 95.004166,87.324600 97.751930,86.912285 
	C100.484520,86.502243 103.247696,86.296005 105.997452,86.000397 
z"/>
<path fill="#D538C3" opacity="1.000000" stroke="none" 
	d="
M118.940918,66.023026 
	C121.010994,67.471184 123.566956,68.768173 120.037521,71.847733 
	C118.083542,71.743523 116.340195,70.903656 115.623741,71.438744 
	C112.184807,74.007103 110.070580,73.203766 109.157310,69.680840 
	C106.869843,70.537086 104.933609,71.261864 102.989426,71.587631 
	C102.744156,69.646477 102.506836,68.104340 102.186546,66.023026 
	C108.100914,66.023026 113.520912,66.023026 118.940918,66.023026 
z"/>
<path fill="#D139CA" opacity="1.000000" stroke="none" 
	d="
M12.020837,74.977547 
	C11.428382,74.469551 10.835927,73.961555 10.137760,72.793228 
	C12.577518,66.111931 18.199160,70.297127 22.161238,68.747299 
	C23.063255,68.394470 25.318048,71.499969 26.892672,73.387367 
	C22.452162,74.632881 18.069178,75.504738 13.686195,76.376587 
	C13.686195,76.376587 13.679653,76.308075 13.668917,76.002258 
	C13.112398,75.456810 12.566617,75.217178 12.020837,74.977547 
z"/>
<path fill="#DC56AD" opacity="1.000000" stroke="none" 
	d="
M94.962021,57.098030 
	C98.433945,56.051029 101.905876,55.004028 105.839035,53.917664 
	C106.300262,53.878296 106.706787,54.015312 106.935318,54.293892 
	C107.284630,54.743267 107.440193,54.872059 107.630554,54.958847 
	C109.731369,56.739983 111.832191,58.521118 113.642273,60.633003 
	C108.802055,61.266758 104.064148,59.283764 99.471527,61.897232 
	C97.802193,60.170815 96.382111,58.634422 94.962021,57.098030 
z"/>
<path fill="#D43EC1" opacity="1.000000" stroke="none" 
	d="
M26.950201,73.013702 
	C25.318048,71.499969 23.063255,68.394470 22.161238,68.747299 
	C18.199160,70.297127 12.577518,66.111931 10.025803,72.518623 
	C6.760567,71.022903 5.834642,68.881248 9.940989,66.087769 
	C15.447423,65.231178 20.232050,61.812046 25.212744,65.728157 
	C25.652521,66.073929 26.988316,65.280106 27.938961,65.343445 
	C27.912657,66.105415 27.855333,66.539520 27.559309,67.272507 
	C27.197140,69.385490 27.073671,71.199593 26.950201,73.013702 
z"/>
<path fill="#D647B9" opacity="1.000000" stroke="none" 
	d="
M99.720772,62.087265 
	C104.064148,59.283764 108.802055,61.266758 113.809631,60.934700 
	C115.804504,62.392941 117.341270,63.880230 118.909477,65.695274 
	C113.520912,66.023026 108.100914,66.023026 102.186546,66.023026 
	C102.506836,68.104340 102.744156,69.646477 102.688034,71.593491 
	C101.992645,72.004372 101.590698,72.010384 101.157211,71.580635 
	C100.657379,68.125671 100.189072,65.106468 99.720772,62.087265 
z"/>
<path fill="#9780CA" opacity="1.000000" stroke="none" 
	d="
M94.999512,90.000000 
	C96.617981,90.413338 98.236450,90.826668 99.927719,91.606506 
	C99.194481,92.899925 98.388443,93.826843 97.300232,94.881996 
	C89.937584,94.674278 82.848572,94.451103 75.783012,93.917442 
	C74.160622,93.794907 72.618843,92.605110 71.025848,91.497635 
	C71.815781,90.469193 72.619835,89.849579 73.728302,89.532898 
	C75.240959,90.528839 76.495461,91.860374 77.647453,91.776909 
	C79.796509,91.621216 81.885971,90.643044 84.000237,90.007141 
	C84.442665,90.007759 84.885101,90.008377 85.740341,90.383980 
	C89.318855,93.034340 92.237549,92.430534 94.999512,90.000000 
z"/>
<path fill="#DE5EAA" opacity="1.000000" stroke="none" 
	d="
M78.657158,56.058083 
	C75.087212,56.704739 71.539795,57.649464 67.941528,57.921341 
	C63.607994,58.248772 59.231258,58.004501 54.450790,58.008453 
	C55.661472,56.638256 57.294586,55.267326 59.235054,53.829071 
	C65.776497,53.852924 72.010582,53.944099 78.600403,54.380852 
	C78.856483,55.170315 78.756821,55.614201 78.657158,56.058083 
z"/>
<path fill="#F2BC58" opacity="1.000000" stroke="none" 
	d="
M76.052063,23.616978 
	C72.559441,23.387894 69.001366,22.720968 65.413506,22.321831 
	C64.217575,22.188789 62.424412,22.305445 61.796795,23.055140 
	C58.832466,26.596081 56.692833,24.689268 54.178600,22.124973 
	C55.362568,20.321850 56.843559,18.721479 58.783325,17.304176 
	C60.782516,18.313568 62.308167,19.779274 63.866829,19.815258 
	C66.162567,19.868261 69.897438,21.783354 70.075706,16.913996 
	C72.042137,19.037210 74.008568,21.160425 76.052063,23.616978 
z"/>
<path fill="#DB57AB" opacity="1.000000" stroke="none" 
	d="
M20.583523,55.094688 
	C23.651903,54.680305 26.448156,54.129250 29.219040,54.236084 
	C30.820639,54.297836 32.381329,55.420444 33.723846,56.691730 
	C31.704571,59.632008 29.921877,61.946148 28.098896,63.863747 
	C26.868874,62.101242 24.751308,59.464207 24.625631,59.555943 
	C21.771097,61.639633 19.364920,59.792534 16.859913,58.953617 
	C18.006861,57.713741 19.153809,56.473866 20.583523,55.094688 
z"/>
<path fill="#4EDBCC" opacity="1.000000" stroke="none" 
	d="
M54.242676,117.241516 
	C58.774342,116.633255 63.426048,116.318108 68.596451,116.346756 
	C70.405884,117.454819 71.696625,118.219101 72.987366,118.983383 
	C71.530525,120.548698 70.073685,122.114021 68.246964,123.426949 
	C65.218658,119.753532 61.743744,119.949791 58.084183,120.964111 
	C56.843693,119.820946 55.603203,118.677788 54.242676,117.241516 
z"/>
<path fill="#CC3CC9" opacity="1.000000" stroke="none" 
	d="
M101.188751,72.016396 
	C101.590698,72.010384 101.992645,72.004372 102.695984,71.992500 
	C104.933609,71.261864 106.869843,70.537086 109.157310,69.680840 
	C110.070580,73.203766 112.184807,74.007103 115.623741,71.438744 
	C116.340195,70.903656 118.083542,71.743523 119.731438,72.000946 
	C118.472366,73.502838 116.835495,74.953537 114.684082,76.654449 
	C110.077248,74.097023 106.045830,77.042107 101.735329,77.025124 
	C101.487495,77.016678 100.991646,77.006271 100.994095,76.606049 
	C100.969894,75.405067 100.943237,74.604317 100.934769,73.501587 
	C101.031555,72.805206 101.110153,72.410805 101.188751,72.016396 
z"/>
<path fill="#C051C7" opacity="1.000000" stroke="none" 
	d="
M26.892673,73.387367 
	C27.073671,71.199593 27.197140,69.385490 27.592587,67.711884 
	C28.569036,71.298790 29.273510,74.745193 29.971132,78.561218 
	C29.395330,79.575783 28.870090,80.727074 28.250080,80.780594 
	C25.067402,81.055359 21.860346,81.047768 18.661806,81.138809 
	C17.061378,79.750809 15.460953,78.362816 13.773361,76.675705 
	C18.069178,75.504738 22.452162,74.632881 26.892673,73.387367 
z"/>
<path fill="#DA47B6" opacity="1.000000" stroke="none" 
	d="
M16.566418,59.094578 
	C19.364920,59.792534 21.771097,61.639633 24.625631,59.555943 
	C24.751308,59.464207 26.868874,62.101242 28.074722,64.062454 
	C28.090837,64.657715 27.907944,65.015579 27.907944,65.015579 
	C26.988316,65.280106 25.652521,66.073929 25.212744,65.728157 
	C20.232050,61.812046 15.447423,65.231178 10.245914,65.939270 
	C12.015993,63.715401 14.144457,61.475468 16.566418,59.094578 
z"/>
<path fill="#B25FCB" opacity="1.000000" stroke="none" 
	d="
M18.819141,81.396828 
	C21.860346,81.047768 25.067402,81.055359 28.250080,80.780594 
	C28.870090,80.727074 29.395330,79.575783 30.276981,78.674347 
	C32.387272,79.975586 34.184864,81.533310 35.982452,83.091042 
	C36.257084,86.010460 34.340416,86.077690 32.248299,86.011429 
	C30.063040,85.942223 27.875097,85.957802 25.310249,85.994896 
	C24.932171,86.053474 24.967325,86.018105 24.860380,85.802063 
	C24.450521,85.425064 24.147608,85.264114 23.844696,85.103165 
	C23.844694,85.103165 23.927483,85.063370 23.793114,84.830200 
	C23.288811,84.444313 22.918880,84.291611 22.548950,84.138901 
	C22.548952,84.138901 22.228720,84.082443 21.985203,83.772942 
	C21.520775,83.217300 21.246628,83.070587 20.919239,83.023293 
	C20.271652,82.567146 19.624065,82.111000 18.819141,81.396828 
z"/>
<path fill="#F5C84F" opacity="1.000000" stroke="none" 
	d="
M70.055595,16.929420 
	C69.897438,21.783354 66.162567,19.868261 63.866829,19.815258 
	C62.308167,19.779274 60.782516,18.313568 59.070385,17.141735 
	C64.473534,10.502041 64.927986,10.449215 68.860771,16.100931 
	C69.479149,16.763765 69.752563,16.911741 70.079285,16.961281 
	C70.079285,16.961281 70.035484,16.944845 70.055595,16.929420 
z"/>
<path fill="#D65BAC" opacity="1.000000" stroke="none" 
	d="
M41.343815,56.012619 
	C43.362648,55.925209 45.381485,55.837799 47.723457,55.892357 
	C45.470634,57.798126 42.889927,59.555050 40.320465,61.328266 
	C38.737091,62.420971 37.170876,63.538528 35.292706,64.465759 
	C34.627533,63.091034 34.266621,61.895473 34.060112,60.408329 
	C36.590954,58.748699 38.967384,57.380661 41.343815,56.012619 
z"/>
<path fill="#CB43BB" opacity="1.000000" stroke="none" 
	d="
M33.905708,60.699917 
	C34.266621,61.895473 34.627533,63.091034 35.010284,64.666527 
	C35.032120,65.046463 35.005901,65.014038 34.765190,65.182068 
	C34.364117,65.930595 34.203754,66.511101 34.043396,67.091606 
	C34.590958,69.516396 35.138519,71.941193 35.818588,74.712593 
	C34.878784,75.369186 33.806477,75.679176 32.109894,75.709793 
	C28.715870,68.375298 29.251480,65.115150 33.905708,60.699917 
z"/>
<path fill="#B857C9" opacity="1.000000" stroke="none" 
	d="
M100.991646,77.006271 
	C100.991646,77.006271 101.487495,77.016678 101.784462,77.385101 
	C104.033897,82.070679 106.638969,79.132217 109.110214,78.269951 
	C109.780869,79.216698 110.420776,80.120041 111.060684,81.023392 
	C110.886391,81.303459 110.712097,81.583519 109.968987,81.972580 
	C108.935341,82.722832 108.470505,83.364082 108.005669,84.005333 
	C108.005669,84.005333 108.000000,84.000000 107.598473,83.998016 
	C103.457909,82.972633 99.718880,81.949234 96.105209,80.647202 
	C97.366585,79.249252 98.502602,78.129936 99.976883,77.010201 
	C100.540634,77.008614 100.766136,77.007439 100.991646,77.006271 
z"/>
<path fill="#AE63CC" opacity="1.000000" stroke="none" 
	d="
M95.979843,80.925835 
	C99.718880,81.949234 103.457909,82.972633 107.601105,84.000946 
	C107.515640,84.595261 107.026031,85.184662 106.266937,85.887238 
	C103.247696,86.296005 100.484520,86.502243 97.751930,86.912285 
	C95.004166,87.324600 93.741051,86.298798 94.073166,82.873032 
	C94.795250,81.795700 95.387543,81.360771 95.979843,80.925835 
z"/>
<path fill="#4CE7CE" opacity="1.000000" stroke="none" 
	d="
M58.227417,121.264053 
	C61.743744,119.949791 65.218658,119.753532 67.932831,123.481285 
	C65.980858,127.361061 63.753445,127.954559 61.080238,124.391235 
	C60.302586,123.354637 59.280624,122.501328 58.227417,121.264053 
z"/>
<path fill="#CA44C2" opacity="1.000000" stroke="none" 
	d="
M94.900635,67.435562 
	C95.490784,67.209412 96.089363,67.380013 96.851334,68.186050 
	C97.133942,70.915611 97.253159,73.009720 97.056747,75.200073 
	C96.491676,75.875153 96.242226,76.453995 95.859055,77.288864 
	C95.125679,78.012634 94.526031,78.480385 93.561867,78.945045 
	C92.430252,78.220993 91.663155,77.500031 90.896049,76.779068 
	C92.233719,73.796814 93.571388,70.814560 94.900635,67.435562 
z"/>
<path fill="#C04BC9" opacity="1.000000" stroke="none" 
	d="
M111.348427,80.890579 
	C110.420776,80.120041 109.780869,79.216698 109.110214,78.269951 
	C106.638969,79.132217 104.033897,82.070679 102.032295,77.393547 
	C106.045830,77.042107 110.077248,74.097023 114.506783,76.940567 
	C113.774750,78.236900 112.705460,79.497330 111.348427,80.890579 
z"/>
<path fill="#B85FC4" opacity="1.000000" stroke="none" 
	d="
M90.522720,76.851868 
	C91.663155,77.500031 92.430252,78.220993 93.390236,79.238213 
	C91.495850,80.406296 89.408592,81.278122 86.866776,82.108086 
	C84.887680,82.026596 83.363129,81.986977 81.838577,81.947357 
	C84.608856,80.273132 87.379128,78.598900 90.522720,76.851868 
z"/>
<path fill="#9E76CE" opacity="1.000000" stroke="none" 
	d="
M83.746658,89.724289 
	C81.885971,90.643044 79.796509,91.621216 77.647453,91.776909 
	C76.495461,91.860374 75.240959,90.528839 74.026443,89.455414 
	C74.407295,88.716270 74.794426,88.357552 75.441742,87.933868 
	C78.298973,88.393074 80.896027,88.917244 83.746658,89.724289 
z"/>
<path fill="#AD63CB" opacity="1.000000" stroke="none" 
	d="
M81.625473,82.038559 
	C83.363129,81.986977 84.887680,82.026596 86.795090,82.390839 
	C87.136642,83.101555 87.095337,83.487648 87.054039,83.873741 
	C86.159065,84.907806 85.264099,85.941872 84.369125,86.975937 
	C83.247650,85.891296 82.126183,84.806648 80.989662,83.323685 
	C81.010536,82.599640 81.156448,82.334435 81.625473,82.038559 
z"/>
<path fill="#5BD5CE" opacity="1.000000" stroke="none" 
	d="
M73.285316,118.854935 
	C71.696625,118.219101 70.405884,117.454819 69.060066,116.351379 
	C71.723839,115.340805 74.442673,114.669380 77.565102,113.996033 
	C76.506882,115.571579 75.045074,117.149033 73.285316,118.854935 
z"/>
<path fill="#AE63CC" opacity="1.000000" stroke="none" 
	d="
M108.277679,83.895538 
	C108.470505,83.364082 108.935341,82.722832 109.727890,82.050850 
	C109.553619,82.608658 109.051651,83.197205 108.277679,83.895538 
z"/>
<path fill="#C051C7" opacity="1.000000" stroke="none" 
	d="
M12.136560,75.247925 
	C12.566617,75.217178 13.112398,75.456810 13.702751,76.008537 
	C13.248977,76.053192 12.750630,75.785751 12.136560,75.247925 
z"/>
<path fill="#D65BAC" opacity="1.000000" stroke="none" 
	d="
M34.280441,66.902130 
	C34.203754,66.511101 34.364117,65.930595 34.784409,65.181122 
	C34.868725,65.578979 34.693104,66.145813 34.280441,66.902130 
z"/>
<path fill="#A872CB" opacity="1.000000" stroke="none" 
	d="
M21.035858,83.233017 
	C21.246628,83.070587 21.520775,83.217300 21.862909,83.665802 
	C21.642822,83.851685 21.365602,83.709877 21.035858,83.233017 
z"/>
<path fill="#A872CB" opacity="1.000000" stroke="none" 
	d="
M22.713522,84.387512 
	C22.918880,84.291611 23.288811,84.444313 23.789360,84.875969 
	C23.572681,84.981979 23.225388,84.809052 22.713522,84.387512 
z"/>
<path fill="#A872CB" opacity="1.000000" stroke="none" 
	d="
M23.939022,85.355728 
	C24.147608,85.264114 24.450521,85.425064 24.865398,85.824699 
	C24.662689,85.911682 24.348017,85.759979 23.939022,85.355728 
z"/>
<path fill="#BB55C8" opacity="1.000000" stroke="none" 
	d="
M49.734459,73.969498 
	C49.808380,74.135406 49.668789,74.444870 49.306904,74.887650 
	C49.230061,74.718330 49.375504,74.415688 49.734459,73.969498 
z"/>
<path fill="#DF6D9F" opacity="1.000000" stroke="none" 
	d="
M107.615852,54.786720 
	C107.440193,54.872059 107.284630,54.743267 107.094475,54.437702 
	C107.285728,54.280132 107.477753,54.384018 107.615852,54.786720 
z"/>
<path fill="#A872CB" opacity="1.000000" stroke="none" 
	d="
M72.383980,83.076019 
	C72.338936,82.839272 72.576393,82.533981 73.112877,82.178391 
	C73.163429,82.421227 72.914955,82.714348 72.383980,83.076019 
z"/>
<path fill="#F2BC58" opacity="1.000000" stroke="none" 
	d="
M69.992737,16.720245 
	C69.752563,16.911741 69.479149,16.763765 69.136375,16.315374 
	C69.311211,16.235332 69.608696,16.357269 69.992737,16.720245 
z"/>
<path fill="#F7F0F6" opacity="1.000000" stroke="none" 
	d="
M34.060112,60.408329 
	C29.251480,65.115150 28.715870,68.375298 31.751257,75.707108 
	C35.875648,82.941002 42.534657,82.116371 49.358562,82.089783 
	C49.312027,82.756203 48.807907,83.961807 48.335213,83.949615 
	C44.484493,83.850266 40.639648,83.523247 36.387733,83.178268 
	C34.184864,81.533310 32.387272,79.975586 30.283829,78.304726 
	C29.273510,74.745193 28.569036,71.298790 27.831285,67.413010 
	C27.855333,66.539520 27.912657,66.105415 27.938961,65.343445 
	C27.907944,65.015579 28.090837,64.657715 28.115009,64.459000 
	C29.921877,61.946148 31.704571,59.632008 33.736526,57.084984 
	C36.298710,56.353561 38.611637,55.855015 41.134186,55.684547 
	C38.967384,57.380661 36.590954,58.748699 34.060112,60.408329 
z"/>
<path fill="#F9F1F7" opacity="1.000000" stroke="none" 
	d="
M87.449219,83.937782 
	C87.095337,83.487648 87.136642,83.101555 87.249634,82.432709 
	C89.408592,81.278122 91.495850,80.406296 93.754745,79.241302 
	C94.526031,78.480385 95.125679,78.012634 96.142578,77.158783 
	C96.830673,76.216400 97.101524,75.660118 97.372375,75.103836 
	C97.253159,73.009720 97.133942,70.915611 97.032852,68.449173 
	C98.657845,63.565090 94.794510,58.187187 89.074883,57.082767 
	C87.777122,56.832176 86.423080,56.873077 84.388039,56.638336 
	C82.523544,56.509033 81.365944,56.521198 80.208351,56.533360 
	C79.953827,56.442520 79.699310,56.351677 79.050972,56.159462 
	C78.756821,55.614201 78.856483,55.170315 79.078644,54.405910 
	C84.224258,54.995396 89.247383,55.905396 94.616257,56.956711 
	C96.382111,58.634422 97.802193,60.170815 99.471527,61.897232 
	C100.189072,65.106468 100.657379,68.125671 101.157211,71.580635 
	C101.110153,72.410805 101.031555,72.805206 100.654709,73.724617 
	C100.117180,75.169952 99.877899,76.090286 99.638618,77.010620 
	C98.502602,78.129936 97.366585,79.249252 96.105209,80.647202 
	C95.387543,81.360771 94.795250,81.795700 94.040344,82.452286 
	C91.866623,83.116570 89.855515,83.559196 87.449219,83.937782 
z"/>
<path fill="#DE5EAA" opacity="1.000000" stroke="none" 
	d="
M80.501717,56.694599 
	C81.365944,56.521198 82.523544,56.509033 83.983246,56.694199 
	C83.121933,56.879631 81.958511,56.867737 80.501717,56.694599 
z"/>
<path fill="#EFA569" opacity="1.000000" stroke="none" 
	d="
M69.168335,29.309460 
	C69.765167,27.661032 70.533913,26.335352 71.533287,24.611946 
	C73.586258,26.115757 75.142067,27.255400 76.849228,28.694813 
	C74.611191,31.178125 72.114258,32.069695 69.168335,29.309460 
z"/>
<path fill="#9E76CE" opacity="1.000000" stroke="none" 
	d="
M94.735542,89.716644 
	C92.237549,92.430534 89.318855,93.034340 86.072159,90.385178 
	C88.817970,89.818687 91.644775,89.625992 94.735542,89.716644 
z"/>
<path fill="#C04BC9" opacity="1.000000" stroke="none" 
	d="
M99.976883,77.010201 
	C99.877899,76.090286 100.117180,75.169952 100.636528,74.026588 
	C100.943237,74.604317 100.969894,75.405067 100.994095,76.606049 
	C100.766136,77.007439 100.540634,77.008614 99.976883,77.010201 
z"/>
<path fill="#B85FC4" opacity="1.000000" stroke="none" 
	d="
M97.056747,75.200073 
	C97.101524,75.660118 96.830673,76.216400 96.276291,76.902763 
	C96.242226,76.453995 96.491676,75.875153 97.056747,75.200073 
z"/>
</svg>